# xmcd CD database file
#
# Track frame offsets:
#	150
#	17444
#	34311
#	54077
#	75446
#	95064
#	111400
#	130095
#	150662
#	170280
#
# Disc length: 2539 seconds
#
# Revision: 0
# Processed by: cddbd v1.5.1PL2 Copyright (c) Steve Scherf et al.
# Submitted via: CDex 1.51
#
DISCID=6f09e90a
DTITLE=大塚愛 - Love Jam
DYEAR=1900
DGENRE=
TTITLE0=スーパーマン
TTITLE1=Happy Days
TTITLE2=Strawberry Jam
TTITLE3=大好きだよ。
TTITLE4=扇子
TTITLE5=妄想チョップ
TTITLE6=ふたつ星記念日
TTITLE7=金魚花火
TTITLE8=黒毛和牛上塩タン焼き735円
TTITLE9=フレンズ
EXTD=
EXTT0=
EXTT1=
EXTT2=
EXTT3=
EXTT4=
EXTT5=
EXTT6=
EXTT7=
EXTT8=
EXTT9=
PLAYORDER=
